<mxfile host="app.diagrams.net" modified="2021-05-01T11:20:35.433Z" agent="5.0 (X11; Linux x86_64) AppleWebKit/537.36 (KHTML, like Gecko) Chrome/90.0.4430.93 Safari/537.36" etag="E-348XX7kS6XCbW_-KNX" version="14.6.9" type="github">
  <diagram id="_-TIoJLcA6FBdf_YyfLq" name="Page-1">
    <mxGraphModel dx="1422" dy="801" grid="1" gridSize="10" guides="1" tooltips="1" connect="1" arrows="1" fold="1" page="1" pageScale="1" pageWidth="1169" pageHeight="827" math="0" shadow="0">
      <root>
        <mxCell id="0" />
        <mxCell id="1" parent="0" />
        <mxCell id="rwthJl_rTTUDkzyjjOOi-1" value="main" style="shape=module;align=left;spacingLeft=20;align=center;verticalAlign=top;" vertex="1" parent="1">
          <mxGeometry x="470" y="10" width="100" height="50" as="geometry" />
        </mxCell>
        <mxCell id="rwthJl_rTTUDkzyjjOOi-2" value="Factory&#xa;component" style="shape=module;align=left;spacingLeft=20;align=center;verticalAlign=top;" vertex="1" parent="1">
          <mxGeometry x="70" y="140" width="100" height="50" as="geometry" />
        </mxCell>
        <mxCell id="rwthJl_rTTUDkzyjjOOi-3" value="FCamera" style="shape=module;align=left;spacingLeft=20;align=center;verticalAlign=top;" vertex="1" parent="1">
          <mxGeometry x="20" y="250" width="100" height="50" as="geometry" />
        </mxCell>
        <mxCell id="rwthJl_rTTUDkzyjjOOi-4" value="FLinght" style="shape=module;align=left;spacingLeft=20;align=center;verticalAlign=top;" vertex="1" parent="1">
          <mxGeometry x="140" y="250" width="100" height="50" as="geometry" />
        </mxCell>
        <mxCell id="rwthJl_rTTUDkzyjjOOi-5" value="" style="endArrow=classic;html=1;exitX=0.5;exitY=1;exitDx=0;exitDy=0;entryX=0.5;entryY=0;entryDx=0;entryDy=0;edgeStyle=orthogonalEdgeStyle;" edge="1" parent="1" source="rwthJl_rTTUDkzyjjOOi-2" target="rwthJl_rTTUDkzyjjOOi-3">
          <mxGeometry width="50" height="50" relative="1" as="geometry">
            <mxPoint x="90" y="130" as="sourcePoint" />
            <mxPoint x="140" y="80" as="targetPoint" />
          </mxGeometry>
        </mxCell>
        <mxCell id="rwthJl_rTTUDkzyjjOOi-6" value="" style="endArrow=classic;html=1;exitX=0.75;exitY=1;exitDx=0;exitDy=0;edgeStyle=orthogonalEdgeStyle;" edge="1" parent="1" source="rwthJl_rTTUDkzyjjOOi-2" target="rwthJl_rTTUDkzyjjOOi-4">
          <mxGeometry width="50" height="50" relative="1" as="geometry">
            <mxPoint x="140" y="240" as="sourcePoint" />
            <mxPoint x="190" y="190" as="targetPoint" />
          </mxGeometry>
        </mxCell>
        <mxCell id="rwthJl_rTTUDkzyjjOOi-7" value="LoaderÂ &#xa;model" style="shape=module;align=left;spacingLeft=20;align=center;verticalAlign=top;" vertex="1" parent="1">
          <mxGeometry x="260" y="140" width="100" height="50" as="geometry" />
        </mxCell>
        <mxCell id="rwthJl_rTTUDkzyjjOOi-8" value="Factory&#xa;Model" style="shape=module;align=left;spacingLeft=20;align=center;verticalAlign=top;" vertex="1" parent="1">
          <mxGeometry x="260" y="250" width="100" height="50" as="geometry" />
        </mxCell>
        <mxCell id="rwthJl_rTTUDkzyjjOOi-9" value="" style="endArrow=classic;html=1;exitX=0.5;exitY=1;exitDx=0;exitDy=0;entryX=0.5;entryY=0;entryDx=0;entryDy=0;" edge="1" parent="1" source="rwthJl_rTTUDkzyjjOOi-7" target="rwthJl_rTTUDkzyjjOOi-8">
          <mxGeometry width="50" height="50" relative="1" as="geometry">
            <mxPoint x="380" y="330" as="sourcePoint" />
            <mxPoint x="430" y="280" as="targetPoint" />
          </mxGeometry>
        </mxCell>
        <mxCell id="rwthJl_rTTUDkzyjjOOi-10" value="" style="endArrow=classic;html=1;exitX=0.201;exitY=0.994;exitDx=0;exitDy=0;entryX=0.5;entryY=0;entryDx=0;entryDy=0;edgeStyle=orthogonalEdgeStyle;exitPerimeter=0;" edge="1" parent="1" source="rwthJl_rTTUDkzyjjOOi-1" target="rwthJl_rTTUDkzyjjOOi-2">
          <mxGeometry width="50" height="50" relative="1" as="geometry">
            <mxPoint x="200" y="90" as="sourcePoint" />
            <mxPoint x="250" y="40" as="targetPoint" />
            <Array as="points">
              <mxPoint x="490" y="80" />
              <mxPoint x="120" y="80" />
            </Array>
          </mxGeometry>
        </mxCell>
        <mxCell id="rwthJl_rTTUDkzyjjOOi-11" value="" style="endArrow=classic;html=1;exitX=0.299;exitY=0.998;exitDx=0;exitDy=0;entryX=0.5;entryY=0;entryDx=0;entryDy=0;edgeStyle=orthogonalEdgeStyle;exitPerimeter=0;" edge="1" parent="1" source="rwthJl_rTTUDkzyjjOOi-1" target="rwthJl_rTTUDkzyjjOOi-7">
          <mxGeometry width="50" height="50" relative="1" as="geometry">
            <mxPoint x="460" y="250" as="sourcePoint" />
            <mxPoint x="510" y="200" as="targetPoint" />
            <Array as="points">
              <mxPoint x="500" y="90" />
              <mxPoint x="310" y="90" />
            </Array>
          </mxGeometry>
        </mxCell>
        <mxCell id="rwthJl_rTTUDkzyjjOOi-12" value="Module" style="shape=module;align=left;spacingLeft=20;align=center;verticalAlign=top;" vertex="1" parent="1">
          <mxGeometry x="420" y="140" width="100" height="50" as="geometry" />
        </mxCell>
        <mxCell id="rwthJl_rTTUDkzyjjOOi-13" value="Camera" style="shape=module;align=left;spacingLeft=20;align=center;verticalAlign=top;" vertex="1" parent="1">
          <mxGeometry x="550" y="140" width="100" height="50" as="geometry" />
        </mxCell>
        <mxCell id="rwthJl_rTTUDkzyjjOOi-14" value="Light" style="shape=module;align=left;spacingLeft=20;align=center;verticalAlign=top;" vertex="1" parent="1">
          <mxGeometry x="670" y="140" width="100" height="50" as="geometry" />
        </mxCell>
        <mxCell id="rwthJl_rTTUDkzyjjOOi-15" value="" style="endArrow=classic;html=1;exitX=0.4;exitY=0.988;exitDx=0;exitDy=0;exitPerimeter=0;entryX=0.5;entryY=0;entryDx=0;entryDy=0;edgeStyle=orthogonalEdgeStyle;" edge="1" parent="1" source="rwthJl_rTTUDkzyjjOOi-1" target="rwthJl_rTTUDkzyjjOOi-12">
          <mxGeometry width="50" height="50" relative="1" as="geometry">
            <mxPoint x="430" y="300" as="sourcePoint" />
            <mxPoint x="480" y="250" as="targetPoint" />
          </mxGeometry>
        </mxCell>
        <mxCell id="rwthJl_rTTUDkzyjjOOi-16" value="" style="endArrow=classic;html=1;exitX=0.6;exitY=1;exitDx=0;exitDy=0;entryX=0.75;entryY=0;entryDx=0;entryDy=0;edgeStyle=orthogonalEdgeStyle;exitPerimeter=0;" edge="1" parent="1" source="rwthJl_rTTUDkzyjjOOi-1" target="rwthJl_rTTUDkzyjjOOi-13">
          <mxGeometry width="50" height="50" relative="1" as="geometry">
            <mxPoint x="610" y="110" as="sourcePoint" />
            <mxPoint x="660" y="60" as="targetPoint" />
          </mxGeometry>
        </mxCell>
        <mxCell id="rwthJl_rTTUDkzyjjOOi-17" value="" style="endArrow=classic;html=1;exitX=0.7;exitY=1.003;exitDx=0;exitDy=0;entryX=0.5;entryY=0;entryDx=0;entryDy=0;edgeStyle=orthogonalEdgeStyle;exitPerimeter=0;" edge="1" parent="1" source="rwthJl_rTTUDkzyjjOOi-1" target="rwthJl_rTTUDkzyjjOOi-14">
          <mxGeometry width="50" height="50" relative="1" as="geometry">
            <mxPoint x="650" y="90" as="sourcePoint" />
            <mxPoint x="700" y="40" as="targetPoint" />
            <Array as="points">
              <mxPoint x="540" y="90" />
              <mxPoint x="720" y="90" />
            </Array>
          </mxGeometry>
        </mxCell>
        <mxCell id="rwthJl_rTTUDkzyjjOOi-18" value="Scene" style="shape=module;align=left;spacingLeft=20;align=center;verticalAlign=top;" vertex="1" parent="1">
          <mxGeometry x="810" y="140" width="100" height="50" as="geometry" />
        </mxCell>
        <mxCell id="rwthJl_rTTUDkzyjjOOi-19" value="" style="endArrow=classic;html=1;exitX=0.802;exitY=1.007;exitDx=0;exitDy=0;entryX=0.535;entryY=-0.001;entryDx=0;entryDy=0;entryPerimeter=0;edgeStyle=orthogonalEdgeStyle;exitPerimeter=0;" edge="1" parent="1" source="rwthJl_rTTUDkzyjjOOi-1" target="rwthJl_rTTUDkzyjjOOi-18">
          <mxGeometry width="50" height="50" relative="1" as="geometry">
            <mxPoint x="730" y="90" as="sourcePoint" />
            <mxPoint x="780" y="40" as="targetPoint" />
            <Array as="points">
              <mxPoint x="550" y="80" />
              <mxPoint x="864" y="80" />
              <mxPoint x="864" y="140" />
            </Array>
          </mxGeometry>
        </mxCell>
        <mxCell id="rwthJl_rTTUDkzyjjOOi-20" value="Export" style="shape=module;align=left;spacingLeft=20;align=center;verticalAlign=top;" vertex="1" parent="1">
          <mxGeometry x="1050" y="140" width="100" height="50" as="geometry" />
        </mxCell>
        <mxCell id="rwthJl_rTTUDkzyjjOOi-22" value="" style="endArrow=classic;html=1;exitX=0.9;exitY=0.998;exitDx=0;exitDy=0;exitPerimeter=0;entryX=0.5;entryY=0;entryDx=0;entryDy=0;edgeStyle=orthogonalEdgeStyle;" edge="1" parent="1" source="rwthJl_rTTUDkzyjjOOi-1" target="rwthJl_rTTUDkzyjjOOi-20">
          <mxGeometry width="50" height="50" relative="1" as="geometry">
            <mxPoint x="580" y="70" as="sourcePoint" />
            <mxPoint x="980" y="50" as="targetPoint" />
            <Array as="points">
              <mxPoint x="560" y="70" />
              <mxPoint x="1100" y="70" />
            </Array>
          </mxGeometry>
        </mxCell>
        <mxCell id="rwthJl_rTTUDkzyjjOOi-23" value="ExportToBMP" style="shape=module;align=left;spacingLeft=20;align=center;verticalAlign=top;" vertex="1" parent="1">
          <mxGeometry x="1050" y="230" width="100" height="50" as="geometry" />
        </mxCell>
        <mxCell id="rwthJl_rTTUDkzyjjOOi-24" value="EportTo3D" style="shape=module;align=left;spacingLeft=20;align=center;verticalAlign=top;" vertex="1" parent="1">
          <mxGeometry x="1050" y="310" width="100" height="50" as="geometry" />
        </mxCell>
        <mxCell id="rwthJl_rTTUDkzyjjOOi-25" value="" style="endArrow=none;dashed=1;html=1;dashPattern=1 3;strokeWidth=2;entryX=0;entryY=0;entryDx=0;entryDy=15;entryPerimeter=0;exitX=1;exitY=0.5;exitDx=0;exitDy=0;edgeStyle=orthogonalEdgeStyle;" edge="1" parent="1" source="rwthJl_rTTUDkzyjjOOi-27" target="rwthJl_rTTUDkzyjjOOi-23">
          <mxGeometry width="50" height="50" relative="1" as="geometry">
            <mxPoint x="1000" y="245" as="sourcePoint" />
            <mxPoint x="1000" y="230" as="targetPoint" />
          </mxGeometry>
        </mxCell>
        <mxCell id="rwthJl_rTTUDkzyjjOOi-26" value="" style="endArrow=none;dashed=1;html=1;dashPattern=1 3;strokeWidth=2;entryX=0;entryY=0;entryDx=0;entryDy=15;entryPerimeter=0;exitX=1;exitY=0.5;exitDx=0;exitDy=0;edgeStyle=orthogonalEdgeStyle;" edge="1" parent="1" source="rwthJl_rTTUDkzyjjOOi-27" target="rwthJl_rTTUDkzyjjOOi-24">
          <mxGeometry width="50" height="50" relative="1" as="geometry">
            <mxPoint x="1000" y="325" as="sourcePoint" />
            <mxPoint x="1040" y="330" as="targetPoint" />
          </mxGeometry>
        </mxCell>
        <mxCell id="rwthJl_rTTUDkzyjjOOi-27" value="export" style="ellipse;whiteSpace=wrap;html=1;aspect=fixed;" vertex="1" parent="1">
          <mxGeometry x="990" y="270" width="30" height="30" as="geometry" />
        </mxCell>
        <mxCell id="rwthJl_rTTUDkzyjjOOi-28" value="" style="endArrow=none;html=1;exitX=0.5;exitY=0;exitDx=0;exitDy=0;entryX=0;entryY=0;entryDx=0;entryDy=35;entryPerimeter=0;edgeStyle=orthogonalEdgeStyle;" edge="1" parent="1" source="rwthJl_rTTUDkzyjjOOi-27" target="rwthJl_rTTUDkzyjjOOi-20">
          <mxGeometry width="50" height="50" relative="1" as="geometry">
            <mxPoint x="940" y="270" as="sourcePoint" />
            <mxPoint x="990" y="220" as="targetPoint" />
          </mxGeometry>
        </mxCell>
        <mxCell id="rwthJl_rTTUDkzyjjOOi-29" value="Render" style="shape=module;align=left;spacingLeft=20;align=center;verticalAlign=top;" vertex="1" parent="1">
          <mxGeometry x="810" y="250" width="100" height="50" as="geometry" />
        </mxCell>
        <mxCell id="rwthJl_rTTUDkzyjjOOi-31" value="" style="endArrow=classic;html=1;exitX=0.5;exitY=1;exitDx=0;exitDy=0;entryX=0.5;entryY=0;entryDx=0;entryDy=0;" edge="1" parent="1" source="rwthJl_rTTUDkzyjjOOi-18" target="rwthJl_rTTUDkzyjjOOi-29">
          <mxGeometry width="50" height="50" relative="1" as="geometry">
            <mxPoint x="690" y="320" as="sourcePoint" />
            <mxPoint x="740" y="270" as="targetPoint" />
          </mxGeometry>
        </mxCell>
        <mxCell id="rwthJl_rTTUDkzyjjOOi-33" value="" style="endArrow=classic;html=1;exitX=0;exitY=1;exitDx=10;exitDy=0;exitPerimeter=0;entryX=0.5;entryY=1;entryDx=0;entryDy=0;edgeStyle=orthogonalEdgeStyle;" edge="1" parent="1" source="rwthJl_rTTUDkzyjjOOi-18" target="rwthJl_rTTUDkzyjjOOi-14">
          <mxGeometry width="50" height="50" relative="1" as="geometry">
            <mxPoint x="620" y="330" as="sourcePoint" />
            <mxPoint x="670" y="280" as="targetPoint" />
          </mxGeometry>
        </mxCell>
        <mxCell id="rwthJl_rTTUDkzyjjOOi-34" value="" style="endArrow=classic;html=1;exitX=0.187;exitY=1.023;exitDx=0;exitDy=0;exitPerimeter=0;entryX=0.5;entryY=1;entryDx=0;entryDy=0;edgeStyle=orthogonalEdgeStyle;" edge="1" parent="1" source="rwthJl_rTTUDkzyjjOOi-18" target="rwthJl_rTTUDkzyjjOOi-13">
          <mxGeometry width="50" height="50" relative="1" as="geometry">
            <mxPoint x="710" y="260" as="sourcePoint" />
            <mxPoint x="760" y="210" as="targetPoint" />
            <Array as="points">
              <mxPoint x="829" y="210" />
              <mxPoint x="600" y="210" />
            </Array>
          </mxGeometry>
        </mxCell>
        <mxCell id="rwthJl_rTTUDkzyjjOOi-35" value="" style="endArrow=classic;html=1;exitX=0.25;exitY=1;exitDx=0;exitDy=0;entryX=0.5;entryY=1;entryDx=0;entryDy=0;edgeStyle=orthogonalEdgeStyle;" edge="1" parent="1" source="rwthJl_rTTUDkzyjjOOi-18" target="rwthJl_rTTUDkzyjjOOi-12">
          <mxGeometry width="50" height="50" relative="1" as="geometry">
            <mxPoint x="710" y="270" as="sourcePoint" />
            <mxPoint x="760" y="220" as="targetPoint" />
            <Array as="points">
              <mxPoint x="835" y="220" />
              <mxPoint x="470" y="220" />
            </Array>
          </mxGeometry>
        </mxCell>
      </root>
    </mxGraphModel>
  </diagram>
</mxfile>
